<svg id="visual" viewBox="0 0 900 600" width="900" height="600" xmlns="http://www.w3.org/2000/svg" xmlns:xlink="http://www.w3.org/1999/xlink" version="1.1"><rect x="0" y="0" width="900" height="600" fill="#18122B"></rect><g transform="translate(481.02253434519184 278.24247716621466)"><path d="M130.9 -204.3C153.6 -189 145 -125.7 147.9 -79.3C150.7 -33 164.9 -3.6 169.6 30.6C174.4 64.8 169.6 103.8 151.7 140.4C133.9 177 103 211.3 62.4 232.3C21.8 253.3 -28.5 261 -59.8 236.7C-91.1 212.5 -103.4 156.3 -121.7 116.1C-140.1 75.9 -164.6 51.5 -190.5 14.2C-216.4 -23.1 -243.7 -73.5 -229.5 -104.9C-215.3 -136.4 -159.6 -148.9 -114.4 -154C-69.2 -159 -34.6 -156.5 9.7 -171.6C54.1 -186.8 108.1 -219.6 130.9 -204.3" fill="#EDED00"></path></g></svg>